<?xml version="1.0" standalone="no"?>
<!DOCTYPE svg PUBLIC "-//W3C//DTD SVG 20010904//EN"
 "http://www.w3.org/TR/2001/REC-SVG-20010904/DTD/svg10.dtd">
<svg version="1.0" xmlns="http://www.w3.org/2000/svg"
 width="512.000000pt" height="512.000000pt" viewBox="0 0 512.000000 512.000000"
 preserveAspectRatio="xMidYMid meet">
<metadata>
Created by potrace 1.14, written by Peter Selinger 2001-2017
</metadata>
<g transform="translate(0.000000,512.000000) scale(0.100000,-0.100000)"
fill="#000000" stroke="none">
<path d="M4496 4184 c-3 -8 -6 -255 -6 -547 l0 -531 -52 50 c-112 108 -256
178 -443 216 -81 16 -293 21 -360 8 -111 -22 -160 -34 -169 -42 -6 -4 -18 -8
-28 -8 -10 0 -26 -4 -36 -9 -9 -5 -52 -26 -94 -46 -96 -45 -220 -136 -281
-205 l-45 -52 -58 35 c-54 31 -239 147 -449 280 -328 207 -440 278 -485 305
-23 13 -40 34 -49 59 -15 42 -59 109 -87 134 -30 27 -85 54 -135 68 -51 14
-131 3 -188 -25 -73 -36 -161 -175 -161 -253 0 -20 -7 -31 -28 -42 -15 -7 -47
-25 -72 -40 -25 -14 -76 -43 -115 -63 -38 -21 -94 -52 -122 -67 -29 -16 -77
-42 -105 -58 -168 -91 -273 -148 -326 -177 -53 -30 -59 -30 -116 2 -70 39
-157 57 -214 43 -93 -23 -173 -86 -208 -167 -24 -54 -24 -187 0 -232 37 -70
77 -109 141 -140 52 -25 75 -30 137 -30 l75 0 116 -175 c65 -96 117 -179 117
-184 0 -5 -34 -62 -77 -127 -42 -66 -96 -149 -120 -186 l-43 -68 -75 0 c-121
0 -206 -49 -266 -155 -19 -33 -22 -55 -22 -125 0 -128 36 -191 141 -252 51
-29 64 -32 137 -32 84 0 142 20 193 67 l22 21 53 -27 c54 -28 162 -87 327
-179 44 -25 93 -52 220 -121 36 -19 94 -52 130 -72 36 -20 73 -39 82 -42 18
-5 38 -59 38 -101 0 -34 37 -105 73 -140 115 -110 298 -111 407 -2 61 61 81
118 79 221 -1 49 0 91 2 92 2 1 18 9 34 18 41 22 129 70 195 106 30 17 84 46
120 65 155 83 208 112 255 138 28 15 80 44 118 64 37 20 97 52 135 72 37 20
86 47 110 60 l43 24 87 -88 c161 -164 309 -243 562 -301 104 -24 332 -22 455
4 134 28 242 86 353 190 l89 84 5 -109 c4 -66 11 -116 18 -125 11 -13 48 -15
254 -13 l241 3 0 1470 0 1470 -261 3 c-232 2 -262 1 -268 -14z m-2779 -500
c27 -21 33 -32 33 -63 0 -85 -100 -124 -154 -60 -35 42 -34 80 5 118 38 38 71
40 116 5z m233 -234 c14 -11 29 -20 33 -20 4 0 41 -22 82 -50 41 -27 77 -50
80 -50 3 0 39 -22 80 -50 41 -27 77 -50 80 -50 3 0 39 -22 80 -50 41 -27 77
-50 80 -50 3 0 39 -22 80 -50 41 -27 77 -50 80 -50 3 0 38 -21 78 -48 40 -26
84 -53 98 -61 14 -7 38 -22 52 -34 l27 -22 -31 -90 c-44 -125 -66 -223 -76
-337 l-5 -68 -407 0 -406 0 -39 60 c-39 61 -60 80 -129 119 -56 31 -175 30
-244 -4 -28 -13 -54 -29 -58 -35 -10 -16 -36 -12 -85 13 -213 109 -271 140
-275 146 -2 4 18 41 44 82 27 41 95 146 151 234 251 389 232 364 258 354 33
-13 126 -11 159 2 78 32 95 43 135 84 24 24 45 44 48 44 3 0 16 -8 30 -19z
m-693 -222 c-125 -192 -253 -391 -276 -430 -13 -21 -26 -38 -30 -38 -6 0 -122
58 -259 130 -58 30 -90 65 -73 82 3 3 35 22 71 41 36 19 85 45 110 59 25 14
74 41 110 60 36 19 85 46 110 60 25 14 86 47 135 73 50 27 108 58 130 71 22
12 41 19 43 14 2 -5 -30 -59 -71 -122z m-893 -209 c31 -15 57 -67 49 -100 -21
-87 -138 -93 -173 -9 -14 34 -3 63 38 97 30 26 50 28 86 12z m3686 -165 c162
-54 276 -150 346 -293 40 -81 47 -115 51 -254 5 -144 -9 -206 -70 -320 -50
-95 -183 -205 -292 -242 -100 -34 -254 -47 -321 -26 -16 5 -49 15 -74 22 -170
50 -325 225 -362 409 -17 84 -21 183 -8 239 17 82 32 135 42 146 4 5 8 15 8
22 0 28 95 156 148 199 110 90 236 127 402 117 47 -2 105 -11 130 -19z m-3325
-188 c66 -33 122 -61 124 -62 5 -4 -42 -83 -66 -113 l-20 -24 -64 94 c-81 116
-115 173 -103 168 6 -2 64 -31 129 -63z m386 -201 c46 -25 126 -66 177 -91 81
-41 92 -50 92 -73 0 -29 0 -29 -115 -91 -44 -24 -96 -52 -115 -63 -19 -11 -53
-30 -76 -43 -22 -12 -45 -19 -51 -16 -5 4 -39 51 -76 106 -45 67 -63 104 -59
116 10 25 126 200 133 200 3 0 44 -20 90 -45z m595 -94 c90 -55 47 -183 -55
-165 -43 7 -61 25 -68 69 -7 41 13 77 54 98 37 20 34 20 69 -2z m1064 -195 c0
-23 7 -63 31 -181 12 -57 45 -161 59 -187 18 -32 10 -46 -37 -71 -27 -13 -73
-38 -103 -54 -30 -17 -86 -47 -125 -68 -38 -20 -95 -51 -125 -68 -30 -16 -77
-42 -105 -57 -27 -15 -75 -41 -105 -57 -30 -17 -86 -48 -125 -68 -38 -21 -92
-50 -120 -65 -167 -91 -184 -99 -206 -93 -13 3 -30 10 -36 16 -7 5 -50 10 -95
11 -60 1 -86 5 -95 16 -7 8 -112 163 -234 344 -202 299 -220 330 -203 340 10
6 54 30 98 54 44 24 104 56 134 73 64 35 67 35 106 6 61 -46 95 -57 181 -57
66 0 91 5 132 24 48 24 133 106 133 130 0 34 20 36 432 36 l408 0 0 -24z
m-1952 -125 c44 -62 44 -61 -3 -87 -123 -65 -182 -98 -189 -105 -6 -5 -16 -9
-23 -9 -8 0 6 30 35 73 27 39 65 100 86 135 21 34 41 60 45 58 4 -3 26 -32 49
-65z m363 -537 c116 -174 208 -318 206 -321 -5 -4 -136 63 -236 120 -20 11
-65 36 -101 55 -36 19 -89 47 -117 63 -96 53 -157 86 -240 130 -46 24 -83 48
-83 54 1 26 37 51 218 146 53 28 101 55 107 60 5 5 15 9 22 9 7 0 108 -142
224 -316z m-787 176 c24 -24 25 -93 1 -120 -29 -32 -69 -41 -106 -22 -38 20
-54 58 -45 106 12 61 102 82 150 36z m1326 -669 c30 -25 35 -34 34 -70 -2 -59
-25 -81 -85 -81 -39 0 -51 4 -68 26 -35 45 -23 112 26 138 40 22 54 20 93 -13z"/>
<path d="M3815 2571 c-92 -16 -184 -98 -212 -190 -44 -141 12 -279 142 -351
58 -33 181 -33 249 0 59 28 108 76 138 133 33 63 32 186 -1 251 -60 115 -188
179 -316 157z m123 -227 c36 -41 28 -100 -18 -127 -38 -23 -72 -21 -104 4 -22
17 -26 29 -26 68 0 48 13 70 50 84 28 11 75 -3 98 -29z"/>
</g>
</svg>
